<?xml version="1.0" encoding="utf-8"?>
<svg xmlns="http://www.w3.org/2000/svg" viewBox="0 0 1200 640" font-family="'Helvetica Neue', Arial, sans-serif">
  <defs>
    <marker id="arr" viewBox="0 0 10 10" refX="9" refY="5" markerWidth="6" markerHeight="6" orient="auto-start-reverse">
      <path d="M0,0 L10,5 L0,10 z" fill="#1a2438"/>
    </marker>
    <style>
      .navy { fill: #2c3a52; }
      .coral { fill: #f06070; }
      .white { fill: #ffffff; }
      .label { font-size: 22px; fill: #111; }
      .section { font-size: 30px; font-weight: 800; fill: #111; }
      .small { font-size: 22px; fill: #1a2438; }
      .mono { font-family: 'Courier New', Courier, monospace; font-size: 17px; fill: #ffffff; }
      .mono-b { font-family: 'Courier New', Courier, monospace; font-size: 17px; fill: #ffffff; font-weight: 700; }
      .stroke { fill: none; stroke: #1a2438; stroke-width: 3; }
    </style>
  </defs>
  <rect x="0" y="0" width="1200" height="640" fill="#ffffff"/>
  <rect x="20" y="230" width="1160" height="390" rx="20" fill="#eef0f2"/>
  <text x="40" y="80" class="section" style="white-space: pre;">Normal</text>
  <text x="40" y="118" class="section" style="white-space: pre;">LLM Use</text>
  <text x="40" y="420" class="section" style="white-space: pre;">RAG</text>
  <text x="40" y="458" class="section" style="white-space: pre;">System</text>
  <g transform="translate(260,40)">
    <rect width="90" height="90" rx="16" class="navy"/>
    <path d="M16 22 H74 a6 6 0 0 1 6 6 V60 a6 6 0 0 1 -6 6 H40 l-10 12 v-12 h-14 a6 6 0 0 1 -6 -6 V28 a6 6 0 0 1 6 -6 z" fill="none" stroke="#ffffff" stroke-width="3"/>
    <text x="26" y="56" fill="#ffffff" font-family="'Courier New', monospace" font-size="22" font-weight="700" style="white-space: pre;">&gt;_</text>
  </g>
  <text x="270.123" y="154.509" class="label" style="white-space: pre; font-size: 22px;">Prompt</text>
  <g transform="translate(920,40)">
    <rect width="90" height="90" rx="16" class="navy"/>
    <circle cx="22" cy="22" r="5.5" fill="#ffffff"/>
    <circle cx="22" cy="45" r="5.5" fill="#ffffff"/>
    <circle cx="22" cy="68" r="5.5" fill="#ffffff"/>
    <circle cx="45" cy="33" r="5.5" fill="#ffffff"/>
    <circle cx="45" cy="57" r="5.5" fill="#ffffff"/>
    <circle cx="68" cy="22" r="5.5" fill="#ffffff"/>
    <circle cx="68" cy="45" r="5.5" fill="#ffffff"/>
    <circle cx="68" cy="68" r="5.5" fill="#ffffff"/>
    <g stroke="#ffffff" stroke-width="1.5">
      <line x1="22" y1="22" x2="45" y2="33"/>
      <line x1="22" y1="22" x2="45" y2="57"/>
      <line x1="22" y1="45" x2="45" y2="33"/>
      <line x1="22" y1="45" x2="45" y2="57"/>
      <line x1="22" y1="68" x2="45" y2="33"/>
      <line x1="22" y1="68" x2="45" y2="57"/>
      <line x1="45" y1="33" x2="68" y2="22"/>
      <line x1="45" y1="33" x2="68" y2="45"/>
      <line x1="45" y1="33" x2="68" y2="68"/>
      <line x1="45" y1="57" x2="68" y2="22"/>
      <line x1="45" y1="57" x2="68" y2="45"/>
      <line x1="45" y1="57" x2="68" y2="68"/>
    </g>
  </g>
  <text x="948" y="155" class="label" style="white-space: pre;">LLM</text>
  <line x1="1015" y1="85" x2="1075" y2="85" class="stroke" marker-end="url(#arr)"/>
  <g transform="translate(1080,40)">
    <rect width="90" height="90" rx="16" class="navy"/>
    <path d="M18 24 H72 a6 6 0 0 1 6 6 V58 a6 6 0 0 1 -6 6 H46 l-12 14 v-14 h-10 a6 6 0 0 1 -6 -6 V30 a6 6 0 0 1 6 -6 z" fill="none" stroke="#ffffff" stroke-width="3"/>
    <circle cx="34" cy="44" r="3" fill="#ffffff"/>
    <circle cx="46" cy="44" r="3" fill="#ffffff"/>
    <circle cx="58" cy="44" r="3" fill="#ffffff"/>
    <path d="M68 18 l3 6 l6 1 l-5 4 l1 7 l-5 -3 l-5 3 l1 -7 l-5 -4 l6 -1 z" fill="#ffd86b"/>
  </g>
  <text x="1090" y="155" class="label" style="white-space: pre;">Response</text>
  <text x="640" y="215" text-anchor="middle" class="small" style="white-space: pre;">Added latency</text>
  <path d="M 308.4 166.66 C 308.4 235.904 320.263 279.638 367.716 301.505" class="stroke" marker-end="url(#arr)" style=""/>
  <g transform="translate(370,280)">
    <rect width="110" height="110" rx="18" class="coral"/>
    <path d="M22 24 L88 24 L62 52 L62 84 L48 84 L48 52 Z" fill="#ffffff"/>
    <circle cx="68" cy="62" r="14" fill="#f06070" stroke="#ffffff" stroke-width="3"/>
    <line x1="78" y1="72" x2="90" y2="84" stroke="#ffffff" stroke-width="4" stroke-linecap="round"/>
  </g>
  <text x="313.35" y="435.074" class="label" style="white-space: pre; font-size: 22px;">Retriever</text>
  <line x1="490" y1="335" x2="610" y2="335" class="stroke" marker-end="url(#arr)"/>
  <g transform="translate(620,280)">
    <rect width="110" height="110" rx="18" class="coral"/>
    <rect x="22" y="20" width="50" height="64" rx="4" fill="#ffffff" opacity="0.55"/>
    <rect x="32" y="26" width="50" height="64" rx="4" fill="#ffffff" opacity="0.8"/>
    <rect x="42" y="32" width="50" height="64" rx="4" fill="#ffffff"/>
    <line x1="50" y1="46" x2="84" y2="46" stroke="#f06070" stroke-width="2.5"/>
    <line x1="50" y1="56" x2="84" y2="56" stroke="#f06070" stroke-width="2.5"/>
    <line x1="50" y1="66" x2="84" y2="66" stroke="#f06070" stroke-width="2.5"/>
    <line x1="50" y1="76" x2="76" y2="76" stroke="#f06070" stroke-width="2.5"/>
  </g>
  <text x="623" y="420" class="label" style="white-space: pre;">Relevant</text>
  <text x="615" y="448" class="label" style="white-space: pre;">Documents</text>
  <line x1="740" y1="335" x2="860" y2="335" class="stroke" marker-end="url(#arr)"/>
  <g transform="translate(870,280)">
    <rect width="110" height="110" rx="18" class="coral"/>
    <rect x="20" y="18" width="50" height="64" rx="4" fill="#ffffff"/>
    <line x1="28" y1="32" x2="62" y2="32" stroke="#f06070" stroke-width="2.5"/>
    <line x1="28" y1="42" x2="62" y2="42" stroke="#f06070" stroke-width="2.5"/>
    <line x1="28" y1="52" x2="62" y2="52" stroke="#f06070" stroke-width="2.5"/>
    <line x1="28" y1="62" x2="54" y2="62" stroke="#f06070" stroke-width="2.5"/>
    <path d="M52 50 H92 a6 6 0 0 1 6 6 V80 a6 6 0 0 1 -6 6 H72 l-10 10 v-10 h-10 a6 6 0 0 1 -6 -6 V56 a6 6 0 0 1 6 -6 z" fill="#2c3a52"/>
    <text x="60" y="76" fill="#ffffff" font-family="'Courier New', monospace" font-size="16" font-weight="700" style="white-space: pre;">&gt;_</text>
  </g>
  <text x="885" y="420" class="label" style="white-space: pre;">Augmented</text>
  <text x="905" y="448" class="label" style="white-space: pre;">Prompt</text>
  <path d="M 994.312 282.607 C 1054.31 232.905 1014.31 183.203 979.312 170.423" class="stroke" marker-end="url(#arr)" style="transform-origin: 1002.24px 226.515px;" transform="matrix(0.965926, 0.258819, -0.258819, 0.965926, 0, 0.000001)"/>
  <line x1="410" y1="395" x2="410" y2="470" class="stroke" marker-end="url(#arr)"/>
  <line x1="440" y1="470" x2="440" y2="395" class="stroke" marker-end="url(#arr)"/>
  <g transform="translate(370,470)">
    <rect width="110" height="90" rx="18" class="coral"/>
    <g transform="translate(20,18)">
      <ellipse cx="22" cy="6" rx="20" ry="6" fill="#ffffff"/>
      <rect x="2" y="6" width="40" height="22" fill="#ffffff"/>
      <ellipse cx="22" cy="28" rx="20" ry="6" fill="#ffffff"/>
      <ellipse cx="22" cy="6" rx="20" ry="6" fill="none" stroke="#f06070" stroke-width="1.5"/>
      <ellipse cx="22" cy="17" rx="20" ry="6" fill="none" stroke="#f06070" stroke-width="1.5"/>
    </g>
    <g transform="translate(48,38)">
      <ellipse cx="22" cy="6" rx="20" ry="6" fill="#ffffff"/>
      <rect x="2" y="6" width="40" height="28" fill="#ffffff"/>
      <ellipse cx="22" cy="34" rx="20" ry="6" fill="#ffffff"/>
      <ellipse cx="22" cy="6" rx="20" ry="6" fill="none" stroke="#f06070" stroke-width="1.5"/>
      <ellipse cx="22" cy="17" rx="20" ry="6" fill="none" stroke="#f06070" stroke-width="1.5"/>
      <ellipse cx="22" cy="28" rx="20" ry="6" fill="none" stroke="#f06070" stroke-width="1.5"/>
    </g>
  </g>
  <text x="370.186" y="584.509" class="label" style="white-space: pre; font-size: 22px;">Knowledge</text>
  <text x="402.974" y="610.037" class="label" style="white-space: pre; font-size: 22px;">Base</text>
  <rect x="670" y="470" width="490" height="100" rx="10" fill="#2c3a52"/>
  <text x="634.474" y="494.953" class="mono" style="white-space: pre;">
    <tspan class="mono-b" style="font-size: 17px; word-spacing: 0px;">Taylor Swift</tspan><tspan style="font-size: 17px; word-spacing: 0px;"> is performing her </tspan><tspan class="mono-b" style="font-size: 17px; word-spacing: 0px;">Eras Tour in</tspan>
  </text>
  <text x="634.103" y="519.651" class="mono" style="white-space: pre;">
    <tspan class="mono-b" style="font-size: 17px; word-spacing: 0px;">Vancouver. This weekend</tspan><tspan style="font-size: 17px; word-spacing: 0px;"> at BC Place Stadium on</tspan>
  </text>
  <text x="635.93" y="544.093" class="mono" style="white-space: pre;">
    <tspan class="mono-b" style="font-size: 17px; word-spacing: 0px;">December 6-8, 2024</tspan>
  </text>
  <text x="915" y="600" text-anchor="middle" class="small" style="white-space: pre;">Better responses</text>
</svg>