<svg xmlns="http://www.w3.org/2000/svg" viewBox="0 0 1700 2400" font-family="'Helvetica Neue', Arial, sans-serif">
  <defs>
    <marker id="ar" viewBox="0 0 10 10" refX="9" refY="5" markerWidth="6" markerHeight="6" orient="auto-start-reverse">
      <path d="M0,0 L10,5 L0,10 z" fill="#1a2438"/>
    </marker>
    <linearGradient id="hdr" x1="0" x2="1" y1="0" y2="0">
      <stop offset="0%" stop-color="#1a2438"/>
      <stop offset="100%" stop-color="#ef5b6b"/>
    </linearGradient>
    <style>
      .h1 { font-size: 46px; font-weight: 800; fill: #ffffff; }
      .sub { font-size: 20px; fill: #ffd3d7; font-style: italic; }
      .section { font-size: 30px; font-weight: 800; fill: #111; }
      .mono { font-family: 'Courier New', Courier, monospace; }
    </style>
  </defs>

  <rect x="0" y="0" width="1700" height="2400" fill="#ffffff"/>

  <!-- ===== HEADER ===== -->
  <rect x="0" y="0" width="1700" height="150" fill="url(#hdr)"/>
  <text x="50" y="70" class="h1">Reranking — the precision pass</text>
  <text x="50" y="108" class="sub">Why semantic similarity isn't enough, and how to fix it with two-stage retrieval</text>

  <!-- ===== SECTION 1: THE PROBLEM ===== -->
  <text x="50" y="210" class="section">1. The problem — "similar" doesn't always mean "relevant"</text>

  <rect x="50" y="230" width="1600" height="320" rx="14" fill="#f6f7f9" stroke="#d6d9de"/>

  <!-- Query box -->
  <g transform="translate(80,270)">
    <rect width="500" height="60" rx="10" fill="#eaf0ff" stroke="#cbd6e9"/>
    <rect x="0" y="0" width="500" height="28" rx="10" fill="#2c3a52"/>
    <text x="14" y="20" font-size="14" font-weight="800" fill="#ffffff">Original Query</text>
    <text x="14" y="50" font-size="18" fill="#222">What is the capital of Canada?</text>
  </g>

  <!-- Initial Results -->
  <text x="80" y="370" font-size="18" font-weight="800" fill="#2c3a52">Initial Results from semantic search</text>
  <g transform="translate(80,390)" class="mono" font-size="14">
    <rect x="0" y="0" width="500" height="30" rx="4" fill="#fcd2d6"/>
    <text x="14" y="20" fill="#111">Toronto is in Canada</text>

    <rect x="0" y="38" width="500" height="30" rx="4" fill="#ffe1ad"/>
    <text x="14" y="58" fill="#111">The capital of France is in Paris</text>

    <rect x="0" y="76" width="500" height="30" rx="4" fill="#bbe2ff"/>
    <text x="14" y="96" fill="#111">Canada is the maple syrup capital of the world</text>

    <rect x="0" y="114" width="500" height="30" rx="4" fill="#a99bd6"/>
    <text x="14" y="134" fill="#111">Ottawa is the capital of Canada</text>
  </g>

  <!-- Right side commentary -->
  <g transform="translate(700,270)">
    <rect width="920" height="100" rx="10" fill="#2c3a52"/>
    <text x="460" y="38" text-anchor="middle" font-size="22" font-weight="800" fill="#ffffff">Semantically similar &#8800; directly relevant</text>
    <text x="460" y="74" text-anchor="middle" font-size="14" fill="#cfd5dc" font-style="italic">All four contain "capital" or "Canada" — but only ONE actually answers the question.</text>
  </g>

  <text x="700" y="410" font-size="18" font-weight="800" fill="#ef5b6b">What went wrong?</text>
  <text x="700" y="438" font-size="15" fill="#222">&#9679; <tspan font-weight="800">"Toronto is in Canada"</tspan> — close in vector space (both about Canadian geography)</text>
  <text x="700" y="466" font-size="15" fill="#222">&#9679; <tspan font-weight="800">"Paris"</tspan> — high "capital" overlap, but wrong country</text>
  <text x="700" y="494" font-size="15" fill="#222">&#9679; <tspan font-weight="800">"maple syrup capital"</tspan> — keyword bait, wrong sense of "capital"</text>
  <text x="700" y="522" font-size="15" fill="#222">&#9679; The correct answer <tspan font-weight="800">"Ottawa"</tspan> exists but isn't ranked first</text>

  <!-- ===== SECTION 2: THE PIPELINE ===== -->
  <text x="50" y="610" class="section">2. The fix — a two-stage retrieval pipeline</text>

  <rect x="50" y="630" width="1600" height="340" rx="14" fill="#f6f7f9" stroke="#d6d9de"/>

  <!-- Stage 1: Knowledge Base -->
  <g transform="translate(80,680)">
    <rect width="280" height="240" rx="14" fill="#eef0f2"/>
    <text x="140" y="40" text-anchor="middle" font-size="20" font-weight="800" fill="#111">Knowledge Base</text>
    <!-- grid of squares -->
    <g fill="#2c3a52">
      <rect x="40"  y="70"  width="22" height="22" rx="2"/>
      <rect x="70"  y="70"  width="22" height="22" rx="2"/>
      <rect x="100" y="70"  width="22" height="22" rx="2"/>
      <rect x="130" y="70"  width="22" height="22" rx="2"/>
      <rect x="160" y="70"  width="22" height="22" rx="2"/>
      <rect x="190" y="70"  width="22" height="22" rx="2"/>
      <rect x="220" y="70"  width="22" height="22" rx="2"/>
      <rect x="40"  y="100" width="22" height="22" rx="2"/>
      <rect x="70"  y="100" width="22" height="22" rx="2"/>
      <rect x="100" y="100" width="22" height="22" rx="2"/>
      <rect x="130" y="100" width="22" height="22" rx="2"/>
      <rect x="160" y="100" width="22" height="22" rx="2"/>
      <rect x="190" y="100" width="22" height="22" rx="2"/>
      <rect x="220" y="100" width="22" height="22" rx="2"/>
      <rect x="40"  y="130" width="22" height="22" rx="2"/>
      <rect x="70"  y="130" width="22" height="22" rx="2"/>
      <rect x="100" y="130" width="22" height="22" rx="2"/>
      <rect x="130" y="130" width="22" height="22" rx="2"/>
      <rect x="160" y="130" width="22" height="22" rx="2"/>
      <rect x="190" y="130" width="22" height="22" rx="2"/>
      <rect x="220" y="130" width="22" height="22" rx="2"/>
      <rect x="40"  y="160" width="22" height="22" rx="2" opacity="0.5"/>
      <rect x="70"  y="160" width="22" height="22" rx="2" opacity="0.5"/>
      <rect x="100" y="160" width="22" height="22" rx="2" opacity="0.5"/>
      <rect x="130" y="160" width="22" height="22" rx="2" opacity="0.5"/>
      <rect x="160" y="160" width="22" height="22" rx="2" opacity="0.5"/>
      <rect x="190" y="160" width="22" height="22" rx="2" opacity="0.5"/>
      <rect x="220" y="160" width="22" height="22" rx="2" opacity="0.5"/>
    </g>
    <text x="140" y="220" text-anchor="middle" font-size="12" fill="#666" font-style="italic">millions of docs</text>
  </g>

  <line x1="370" y1="800" x2="430" y2="800" stroke="#1a2438" stroke-width="3" marker-end="url(#ar)"/>

  <!-- Stage 2: Initial Retrieval -->
  <g transform="translate(440,680)">
    <rect width="280" height="240" rx="14" fill="#eef0f2"/>
    <text x="140" y="40" text-anchor="middle" font-size="20" font-weight="800" fill="#111">Initial Retrieval</text>
    <text x="140" y="60" text-anchor="middle" font-size="13" fill="#666">bi-encoder + ANN</text>
    <g fill="#a0a8b5">
      <rect x="60"  y="80"  width="32" height="28" rx="4"/>
      <rect x="100" y="80"  width="32" height="28" rx="4"/>
      <rect x="140" y="80"  width="32" height="28" rx="4"/>
      <rect x="180" y="80"  width="32" height="28" rx="4"/>
      <rect x="60"  y="115" width="32" height="28" rx="4"/>
      <rect x="100" y="115" width="32" height="28" rx="4"/>
      <rect x="140" y="115" width="32" height="28" rx="4"/>
      <rect x="180" y="115" width="32" height="28" rx="4"/>
      <rect x="60"  y="150" width="32" height="28" rx="4"/>
      <rect x="100" y="150" width="32" height="28" rx="4"/>
      <rect x="140" y="150" width="32" height="28" rx="4"/>
      <rect x="180" y="150" width="32" height="28" rx="4"/>
    </g>
    <text x="140" y="210" text-anchor="middle" font-size="14" fill="#111"><tspan font-weight="800">Fast</tspan> but <tspan font-weight="800">imprecise</tspan></text>
    <text x="140" y="228" text-anchor="middle" font-size="12" fill="#666" font-style="italic">top 20&#8211;100 candidates</text>
  </g>

  <line x1="730" y1="800" x2="790" y2="800" stroke="#1a2438" stroke-width="3" marker-end="url(#ar)"/>

  <!-- Stage 3: Reranking (highlighted) -->
  <g transform="translate(800,680)">
    <rect width="280" height="240" rx="14" fill="#ef5b6b"/>
    <text x="140" y="40" text-anchor="middle" font-size="20" font-weight="800" fill="#ffffff">Reranking</text>
    <text x="140" y="60" text-anchor="middle" font-size="13" fill="#ffeaec">cross-encoder / LLM</text>
    <g fill="#1a2438">
      <rect x="60"  y="80"  width="32" height="28" rx="4"/>
      <rect x="100" y="80"  width="32" height="28" rx="4"/>
      <rect x="140" y="80"  width="32" height="28" rx="4"/>
      <rect x="180" y="80"  width="32" height="28" rx="4"/>
    </g>
    <g fill="#ffffff" opacity="0.55">
      <rect x="60"  y="115" width="32" height="28" rx="4"/>
      <rect x="100" y="115" width="32" height="28" rx="4"/>
      <rect x="140" y="115" width="32" height="28" rx="4"/>
      <rect x="180" y="115" width="32" height="28" rx="4"/>
      <rect x="60"  y="150" width="32" height="28" rx="4"/>
      <rect x="100" y="150" width="32" height="28" rx="4"/>
      <rect x="140" y="150" width="32" height="28" rx="4"/>
      <rect x="180" y="150" width="32" height="28" rx="4"/>
    </g>
    <text x="140" y="210" text-anchor="middle" font-size="14" fill="#ffffff">Reorders by</text>
    <text x="140" y="228" text-anchor="middle" font-size="14" fill="#ffffff"><tspan font-weight="800">true relevance</tspan></text>
  </g>

  <line x1="1090" y1="800" x2="1150" y2="800" stroke="#1a2438" stroke-width="3" marker-end="url(#ar)"/>

  <!-- Stage 4: Final Results -->
  <g transform="translate(1160,680)">
    <rect width="280" height="240" rx="14" fill="#eef0f2"/>
    <text x="140" y="40" text-anchor="middle" font-size="20" font-weight="800" fill="#111">Final Results</text>
    <text x="140" y="60" text-anchor="middle" font-size="13" fill="#666">sent to LLM</text>
    <g fill="#2c3a52">
      <rect x="65"  y="90" width="36" height="32" rx="4"/>
      <rect x="110" y="90" width="36" height="32" rx="4"/>
      <rect x="155" y="90" width="36" height="32" rx="4"/>
      <rect x="200" y="90" width="36" height="32" rx="4"/>
    </g>
    <text x="140" y="170" text-anchor="middle" font-size="14" fill="#111">top 3&#8211;5 docs</text>
    <text x="140" y="195" text-anchor="middle" font-size="12" fill="#666" font-style="italic">handed to the LLM</text>
  </g>

  <!-- ===== SECTION 3: BEFORE/AFTER ===== -->
  <text x="50" y="1030" class="section">3. Before vs. after — same docs, different order</text>

  <rect x="50" y="1050" width="1600" height="320" rx="14" fill="#f6f7f9" stroke="#d6d9de"/>

  <!-- Before (Initial) -->
  <text x="80" y="1090" font-size="20" font-weight="800" fill="#1eb6c8">BEFORE &#8226; Initial top-4</text>
  <g transform="translate(80,1110)" class="mono" font-size="14">
    <rect x="0" y="0" width="640" height="38" rx="6" fill="#fcd2d6"/>
    <text x="20" y="24" fill="#111">1. Toronto is in Canada</text>

    <rect x="0" y="46" width="640" height="38" rx="6" fill="#ffe1ad"/>
    <text x="20" y="70" fill="#111">2. The capital of France is in Paris</text>

    <rect x="0" y="92" width="640" height="38" rx="6" fill="#bbe2ff"/>
    <text x="20" y="116" fill="#111">3. Canada is the maple syrup capital of the world</text>

    <rect x="0" y="138" width="640" height="38" rx="6" fill="#a99bd6"/>
    <text x="20" y="162" fill="#111">4. Ottawa is the capital of Canada</text>
  </g>
  <text x="80" y="1310" font-size="14" fill="#666" font-style="italic">The actual answer is buried at position #4</text>

  <!-- Arrow between -->
  <line x1="750" y1="1180" x2="850" y2="1180" stroke="#ef5b6b" stroke-width="4" marker-end="url(#ar)"/>
  <text x="800" y="1200" text-anchor="middle" font-size="14" font-weight="800" fill="#ef5b6b">rerank</text>

  <!-- After (Reranked) -->
  <text x="900" y="1090" font-size="20" font-weight="800" fill="#ef5b6b">AFTER &#8226; Reranked top-4</text>
  <g transform="translate(900,1110)" class="mono" font-size="14">
    <rect x="0" y="0" width="640" height="38" rx="6" fill="#a99bd6"/>
    <text x="20" y="24" fill="#111">1. Ottawa is the capital of Canada</text>

    <rect x="0" y="46" width="640" height="38" rx="6" fill="#fcd2d6"/>
    <text x="20" y="70" fill="#111">2. Toronto is in Canada</text>

    <rect x="0" y="92" width="640" height="38" rx="6" fill="#ffe1ad"/>
    <text x="20" y="116" fill="#111">3. The capital of France is in Paris</text>

    <rect x="0" y="138" width="640" height="38" rx="6" fill="#bbe2ff"/>
    <text x="20" y="162" fill="#111">4. Canada is the maple syrup capital of the world</text>
  </g>
  <text x="900" y="1310" font-size="14" fill="#666" font-style="italic">Ottawa shoots to #1 &#8594; the LLM gets the right context first</text>

  <!-- ===== SECTION 4: TWO METHODS ===== -->
  <text x="50" y="1430" class="section">4. Two ways to rerank</text>

  <!-- Cross-Encoder card -->
  <g transform="translate(50,1460)">
    <rect width="790" height="420" rx="14" fill="#f6f7f9" stroke="#d6d9de"/>
    <text x="20" y="40" font-size="22" font-weight="800" fill="#5b3a8c">a) Cross-Encoder rerankers</text>

    <!-- mini diagram -->
    <g transform="translate(20,60)">
      <!-- prompt + doc -->
      <rect x="0" y="0" width="320" height="80" rx="10" fill="none" stroke="#1a2438" stroke-dasharray="6 4"/>
      <rect x="20" y="20" width="80" height="50" rx="8" fill="#2c3a52"/>
      <text x="60" y="50" text-anchor="middle" class="mono" font-size="14" fill="#ffffff">&gt;_ Q</text>
      <text x="160" y="50" text-anchor="middle" font-size="18" font-weight="800" fill="#1a2438">+</text>
      <rect x="220" y="20" width="80" height="50" rx="8" fill="#2c3a52"/>
      <line x1="240" y1="35" x2="280" y2="35" stroke="#ffffff" stroke-width="2"/>
      <line x1="240" y1="48" x2="280" y2="48" stroke="#ffffff" stroke-width="2"/>
      <line x1="240" y1="60" x2="270" y2="60" stroke="#ffffff" stroke-width="2"/>
      <text x="160" y="100" text-anchor="middle" font-size="12" fill="#666">concatenated</text>

      <line x1="160" y1="110" x2="160" y2="130" stroke="#1a2438" stroke-width="2.5" marker-end="url(#ar)"/>

      <rect x="20" y="135" width="280" height="44" rx="8" fill="#2c3a52"/>
      <text x="160" y="163" text-anchor="middle" font-size="16" font-weight="800" fill="#ffffff">Cross-Encoder</text>

      <line x1="160" y1="183" x2="160" y2="200" stroke="#1a2438" stroke-width="2.5" marker-end="url(#ar)"/>

      <rect x="60" y="205" width="200" height="44" rx="8" fill="#ef5b6b"/>
      <text x="160" y="225" text-anchor="middle" font-size="13" font-weight="800" fill="#ffffff">Relevance Score</text>
      <text x="160" y="241" text-anchor="middle" font-size="12" class="mono" fill="#ffffff">0.00 - 1.00</text>
    </g>

    <text x="370" y="100" font-size="14" fill="#222">&#9679; Concatenates (query, doc) and processes</text>
    <text x="370" y="123" font-size="14" fill="#222">both halves with full cross-attention.</text>
    <text x="370" y="155" font-size="14" fill="#222">&#9679; Much higher quality than bi-encoder.</text>
    <text x="370" y="187" font-size="14" fill="#222">&#9679; Adds minor latency but yields</text>
    <text x="370" y="210" font-size="14" fill="#222">significantly better results.</text>

    <text x="20" y="335" font-size="15" font-weight="800" fill="#5b3a8c">Sweet spot</text>
    <text x="20" y="362" font-size="14" fill="#222">Run cross-encoder only on the top 20&#8211;100 docs</text>
    <text x="20" y="382" font-size="14" fill="#222">from initial retrieval &#8594; quality-time tradeoff feasible.</text>
    <text x="20" y="402" font-size="13" fill="#666" font-style="italic">Too slow to run on millions of docs directly.</text>
  </g>

  <!-- LLM-based scoring card -->
  <g transform="translate(860,1460)">
    <rect width="790" height="420" rx="14" fill="#f6f7f9" stroke="#d6d9de"/>
    <text x="20" y="40" font-size="22" font-weight="800" fill="#5b3a8c">b) LLM-based scoring</text>

    <!-- mini diagram -->
    <g transform="translate(20,60)">
      <!-- Document icon -->
      <rect x="20" y="0" width="60" height="74" rx="8" fill="#2c3a52"/>
      <line x1="34" y1="22" x2="68" y2="22" stroke="#ffffff" stroke-width="2"/>
      <line x1="34" y1="36" x2="68" y2="36" stroke="#ffffff" stroke-width="2"/>
      <line x1="34" y1="50" x2="60" y2="50" stroke="#ffffff" stroke-width="2"/>
      <text x="50" y="98" text-anchor="middle" font-size="14" font-weight="800" fill="#111">Document</text>

      <!-- Query box -->
      <rect x="0" y="115" width="120" height="80" rx="8" fill="#eaf0ff" stroke="#cbd6e9"/>
      <rect x="0" y="115" width="120" height="22" rx="8" fill="#2c3a52"/>
      <text x="10" y="131" font-size="11" font-weight="800" fill="#ffffff">Query</text>
      <text x="60" y="155" text-anchor="middle" font-size="11" fill="#222" font-style="italic">"What is the</text>
      <text x="60" y="170" text-anchor="middle" font-size="11" fill="#222" font-style="italic">capital of</text>
      <text x="60" y="185" text-anchor="middle" font-size="11" fill="#222" font-style="italic">Canada?"</text>

      <line x1="120" y1="60" x2="180" y2="60" stroke="#1a2438" stroke-width="2.5" marker-end="url(#ar)"/>
      <line x1="120" y1="155" x2="180" y2="80" stroke="#1a2438" stroke-width="2.5" marker-end="url(#ar)"/>

      <!-- LLM -->
      <rect x="180" y="35" width="90" height="80" rx="14" fill="#ef5b6b"/>
      <g transform="translate(200,55)" fill="#ffffff">
        <circle cx="10" cy="8" r="3.5"/>
        <circle cx="10" cy="22" r="3.5"/>
        <circle cx="10" cy="36" r="3.5"/>
        <circle cx="25" cy="15" r="3.5"/>
        <circle cx="25" cy="29" r="3.5"/>
        <circle cx="40" cy="8" r="3.5"/>
        <circle cx="40" cy="22" r="3.5"/>
        <circle cx="40" cy="36" r="3.5"/>
        <g stroke="#ffffff" stroke-width="1">
          <line x1="10" y1="8" x2="25" y2="15"/>
          <line x1="10" y1="22" x2="25" y2="15"/>
          <line x1="10" y1="22" x2="25" y2="29"/>
          <line x1="10" y1="36" x2="25" y2="29"/>
          <line x1="25" y1="15" x2="40" y2="8"/>
          <line x1="25" y1="15" x2="40" y2="22"/>
          <line x1="25" y1="29" x2="40" y2="22"/>
          <line x1="25" y1="29" x2="40" y2="36"/>
        </g>
      </g>
      <text x="225" y="135" text-anchor="middle" font-size="12" font-weight="800" fill="#111">Fine-tuned LLM</text>

      <line x1="270" y1="75" x2="305" y2="75" stroke="#1a2438" stroke-width="2.5" marker-end="url(#ar)"/>

      <rect x="315" y="50" width="100" height="50" rx="10" fill="#ef5b6b"/>
      <text x="365" y="80" text-anchor="middle" font-size="20" font-weight="800" fill="#ffffff">0.95</text>
      <text x="365" y="120" text-anchor="middle" font-size="13" font-weight="800" fill="#111">Relevance</text>
      <text x="365" y="135" text-anchor="middle" font-size="13" font-weight="800" fill="#111">Score</text>
    </g>

    <text x="450" y="115" font-size="14" fill="#222">&#9679; A fine-tuned LLM directly outputs</text>
    <text x="450" y="138" font-size="14" fill="#222">a relevance score for (query, doc).</text>
    <text x="450" y="170" font-size="14" fill="#222">&#9679; Highest quality scoring available.</text>
    <text x="450" y="202" font-size="14" fill="#222">&#9679; Most expensive option.</text>

    <text x="20" y="335" font-size="15" font-weight="800" fill="#5b3a8c">Same caveats as cross-encoders</text>
    <text x="20" y="362" font-size="14" fill="#222">Powerful but costly &#8594; too slow for large-scale retrieval.</text>
    <text x="20" y="382" font-size="14" fill="#222">Best used for reranking AFTER initial filtering.</text>
    <text x="20" y="402" font-size="13" fill="#666" font-style="italic">In 2026 also done by prompting general LLMs (RankGPT-style).</text>
  </g>

  <!-- ===== SECTION 5: KEY TAKEAWAYS + 2026 ===== -->
  <text x="50" y="1940" class="section">5. Key takeaways &amp; 2026 production rerankers</text>

  <g transform="translate(50,1960)">
    <rect width="780" height="220" rx="14" fill="#ef5b6b"/>
    <text x="30" y="46" font-size="22" font-weight="800" fill="#ffffff">Why reranking matters</text>
    <text x="30" y="84" font-size="15" fill="#ffffff">&#10003; Initial retrieval optimizes <tspan font-weight="800">recall</tspan>: get the answer</text>
    <text x="30" y="106" font-size="15" fill="#ffffff">somewhere in the top 20.</text>
    <text x="30" y="138" font-size="15" fill="#ffffff">&#10003; Reranking optimizes <tspan font-weight="800">precision</tspan>: put it at #1.</text>
    <text x="30" y="174" font-size="15" fill="#ffffff">&#10003; You still return only 5&#8211;10 docs &#8212; but they're</text>
    <text x="30" y="196" font-size="15" fill="#ffffff">far more <tspan font-weight="800">relevant</tspan> &#8594; better LLM answers.</text>
  </g>

  <g transform="translate(860,1960)">
    <rect width="790" height="220" rx="14" fill="#1a2438"/>
    <text x="30" y="46" font-size="22" font-weight="800" fill="#ffd86b">2026 production rerankers</text>
    <text x="30" y="80" font-size="14" fill="#ffffff">&#9679; <tspan font-weight="800">Cohere Rerank 3</tspan> &#8226; the de-facto API choice (multilingual)</text>
    <text x="30" y="104" font-size="14" fill="#ffffff">&#9679; <tspan font-weight="800">Voyage rerank-2</tspan> &#8226; strong on RAG-style queries</text>
    <text x="30" y="128" font-size="14" fill="#ffffff">&#9679; <tspan font-weight="800">BGE-reranker-v2</tspan> &#8226; popular open-source choice</text>
    <text x="30" y="152" font-size="14" fill="#ffffff">&#9679; <tspan font-weight="800">Jina Reranker v2</tspan> &#8226; fast, multilingual, free tier</text>
    <text x="30" y="176" font-size="14" fill="#ffffff">&#9679; <tspan font-weight="800">Mixedbread mxbai-rerank-large</tspan> &#8226; SOTA open weights</text>
    <text x="30" y="200" font-size="14" fill="#ffffff">&#9679; <tspan font-weight="800">RankGPT / RankZephyr</tspan> &#8226; LLM-as-listwise-reranker</text>
  </g>

  <!-- Final tip -->
  <rect x="50" y="2210" width="1600" height="120" rx="14" fill="#fef3c7" stroke="#fbd24a"/>
  <text x="80" y="2250" font-size="20" font-weight="800" fill="#111">The canonical RAG stack (2026)</text>
  <text x="80" y="2280" font-size="15" fill="#222">
    <tspan font-weight="800">Hybrid search (BM25 + vector)</tspan>
    <tspan> &#8594; retrieve top 50&#8211;100 &#8594; </tspan>
    <tspan font-weight="800">Cross-encoder rerank</tspan>
    <tspan> &#8594; top 5&#8211;10 &#8594; LLM generation.</tspan>
  </text>
  <text x="80" y="2308" font-size="14" fill="#666" font-style="italic">Adding a reranker is one of the highest-ROI upgrades you can make to a basic RAG pipeline — usually a 10&#8211;25% quality lift for ~50 ms extra latency.</text>
</svg>
