<svg xmlns="http://www.w3.org/2000/svg" viewBox="0 0 1700 2200" font-family="'Helvetica Neue', Arial, sans-serif">
  <defs>
    <marker id="ar" viewBox="0 0 10 10" refX="9" refY="5" markerWidth="6" markerHeight="6" orient="auto-start-reverse">
      <path d="M0,0 L10,5 L0,10 z" fill="#1a2438"/>
    </marker>
    <marker id="arpink" viewBox="0 0 10 10" refX="9" refY="5" markerWidth="6" markerHeight="6" orient="auto-start-reverse">
      <path d="M0,0 L10,5 L0,10 z" fill="#ef4773"/>
    </marker>
    <linearGradient id="hdr" x1="0" x2="1" y1="0" y2="0">
      <stop offset="0%" stop-color="#1a2438"/>
      <stop offset="100%" stop-color="#3d527a"/>
    </linearGradient>
    <style>
      .h1 { font-size: 50px; font-weight: 800; fill: #ffffff; }
      .sub { font-size: 22px; fill: #cfd6e2; font-style: italic; }
      .section { font-size: 32px; font-weight: 800; fill: #111; }
      .body { font-size: 17px; fill: #222; }
      .mono { font-family: 'Courier New', Courier, monospace; }
    </style>
  </defs>

  <!-- White background -->
  <rect x="0" y="0" width="1700" height="2200" fill="#ffffff"/>

  <!-- ===== HEADER ===== -->
  <rect x="0" y="0" width="1700" height="160" fill="url(#hdr)"/>
  <g fill="#ffffff" opacity="0.12">
    <circle cx="1450" cy="40" r="40" fill="none" stroke="#ffffff" stroke-width="2"/>
    <circle cx="1450" cy="40" r="6"/>
    <circle cx="1490" cy="80" r="5"/>
    <circle cx="1410" cy="100" r="4"/>
    <line x1="1450" y1="40" x2="1490" y2="80" stroke="#ffffff" stroke-width="2"/>
    <line x1="1450" y1="40" x2="1410" y2="100" stroke="#ffffff" stroke-width="2"/>
  </g>
  <text x="60" y="78" class="h1">Vector Search at Scale: KNN &#8594; ANN &#8594; HNSW</text>
  <text x="60" y="118" class="sub">How vector retrieval goes from O(N) to O(log N) without losing meaningful recall</text>

  <!-- ===== SECTION 1: THE PROBLEM ===== -->
  <text x="60" y="220" class="section">1. The problem — KNN doesn't scale</text>

  <rect x="60" y="240" width="780" height="320" rx="16" fill="#f6f7f9" stroke="#d6d9de"/>
  <text x="90" y="280" font-size="22" font-weight="800" fill="#2c3a52">K-Nearest Neighbors (KNN)</text>
  <text x="90" y="312" font-size="16" fill="#222">1. Embed every doc and the prompt &#8594; vectors</text>
  <text x="90" y="338" font-size="16" fill="#222">2. Compute distance from prompt to <tspan font-weight="800">every</tspan> doc vector</text>
  <text x="90" y="364" font-size="16" fill="#222">3. Sort by distance &#8594; return top-k</text>
  <text x="90" y="408" font-size="16" fill="#666" font-style="italic">Simple, exact, and brutal at scale.</text>

  <!-- numeric callouts -->
  <rect x="90" y="430" width="320" height="50" rx="8" fill="#1eb6c8"/>
  <text x="250" y="462" text-anchor="middle" font-size="18" font-weight="800" fill="#ffffff">1,000 docs &#8594; 1,000 distances</text>
  <rect x="90" y="492" width="320" height="50" rx="8" fill="#ef5b6b"/>
  <text x="250" y="524" text-anchor="middle" font-size="18" font-weight="800" fill="#ffffff">1B docs &#8594; 1B distances (1M&#215; slower)</text>

  <!-- scaling chart -->
  <g transform="translate(450,260)">
    <rect width="370" height="280" rx="10" fill="#ffffff" stroke="#d6d9de"/>
    <line x1="40" y1="40" x2="40" y2="240" stroke="#1a2438" stroke-width="2.5"/>
    <polygon points="40,30 32,48 48,48" fill="#1a2438"/>
    <line x1="40" y1="240" x2="340" y2="240" stroke="#1a2438" stroke-width="2.5"/>
    <polygon points="350,240 332,232 332,248" fill="#1a2438"/>
    <line x1="40" y1="240" x2="320" y2="50" stroke="#1a2438" stroke-width="2.5" stroke-dasharray="8 5"/>
    <circle cx="130" cy="180" r="9" fill="#1eb6c8"/>
    <circle cx="280" cy="80" r="9" fill="#ef5b6b"/>
    <rect x="140" y="60" width="120" height="40" rx="6" fill="#dde2f0"/>
    <text x="200" y="78" text-anchor="middle" font-size="13" font-weight="800" fill="#111">Linear</text>
    <text x="200" y="93" text-anchor="middle" font-size="13" font-weight="800" fill="#111">Growth O(N)</text>
    <text x="185" y="265" text-anchor="middle" font-size="14" fill="#111">Dataset Size</text>
    <text x="20" y="140" text-anchor="middle" font-size="14" fill="#111" transform="rotate(-90, 20, 140)">Calc Time</text>
  </g>

  <!-- right takeaway -->
  <rect x="860" y="240" width="780" height="320" rx="16" fill="#2c3a52"/>
  <text x="890" y="288" font-size="24" font-weight="800" fill="#ffd86b">The bottleneck</text>
  <text x="890" y="328" font-size="20" fill="#ffffff">Naive vector search recomputes distances</text>
  <text x="890" y="356" font-size="20" fill="#ffffff">from scratch every query. At billion-scale,</text>
  <text x="890" y="384" font-size="20" fill="#ffffff">that's seconds per query &#8594; unacceptable.</text>

  <text x="890" y="438" font-size="24" font-weight="800" fill="#ffd86b">The fix</text>
  <text x="890" y="478" font-size="20" fill="#ffffff">Pre-build a clever index once, then answer</text>
  <text x="890" y="506" font-size="20" fill="#ffffff">queries in ~log time. Trade a tiny bit of</text>
  <text x="890" y="534" font-size="20" fill="#ffffff">recall for orders of magnitude more speed.</text>

  <!-- ===== SECTION 2: ANN ===== -->
  <text x="60" y="620" class="section">2. The fix — Approximate Nearest Neighbors (ANN)</text>

  <rect x="60" y="640" width="1580" height="120" rx="16" fill="#fef3c7" stroke="#fbd24a"/>
  <text x="90" y="678" font-size="18" fill="#222">
    <tspan font-weight="800">Trade-off:</tspan>
    <tspan> ANN gives up the guarantee of finding the <tspan font-style="italic">absolute</tspan> closest doc &#8212; in exchange for huge speedups.</tspan>
  </text>
  <text x="90" y="706" font-size="18" fill="#222">In practice, the docs ANN returns are <tspan font-weight="800">very close</tspan> to the true top-k. The vibes are right; the math is approximate.</text>
  <text x="90" y="734" font-size="18" fill="#222">Algorithms in this family: <tspan class="mono" font-weight="800">NSW, HNSW, IVF, IVF-PQ, ScaNN, DiskANN, SPANN</tspan>. Today we focus on NSW and HNSW.</text>

  <!-- ===== SECTION 3: NSW ===== -->
  <text x="60" y="820" class="section">3. Navigable Small World (NSW) — proximity graph + greedy hops</text>

  <!-- Build step -->
  <g transform="translate(60,850)">
    <rect width="380" height="320" rx="16" fill="#f6f7f9" stroke="#d6d9de"/>
    <text x="20" y="40" font-size="20" font-weight="800" fill="#2c3a52">Build (once, offline)</text>
    <text x="20" y="70" font-size="14" fill="#555">a) Compute pairwise distances</text>
    <text x="20" y="92" font-size="14" fill="#555">b) Add 1 node per doc</text>
    <text x="20" y="114" font-size="14" fill="#555">c) Connect each node to its nearest few</text>
    <!-- mini graph -->
    <g transform="translate(30,130)">
      <g stroke="#2c3a52" stroke-width="2" fill="none">
        <line x1="40"  y1="60"  x2="120" y2="40"/>
        <line x1="120" y1="40"  x2="200" y2="70"/>
        <line x1="40"  y1="60"  x2="80"  y2="120"/>
        <line x1="80"  y1="120" x2="160" y2="120"/>
        <line x1="160" y1="120" x2="240" y2="90"/>
        <line x1="200" y1="70"  x2="240" y2="90"/>
        <line x1="200" y1="70"  x2="160" y2="120"/>
        <line x1="120" y1="40"  x2="160" y2="120"/>
        <line x1="80"  y1="120" x2="120" y2="170"/>
        <line x1="120" y1="170" x2="200" y2="160"/>
        <line x1="160" y1="120" x2="200" y2="160"/>
        <line x1="200" y1="160" x2="280" y2="140"/>
        <line x1="240" y1="90"  x2="280" y2="140"/>
        <line x1="280" y1="140" x2="320" y2="80"/>
      </g>
      <g fill="#2c3a52">
        <circle cx="40"  cy="60"  r="8"/>
        <circle cx="120" cy="40"  r="8"/>
        <circle cx="200" cy="70"  r="8"/>
        <circle cx="240" cy="90"  r="8"/>
        <circle cx="320" cy="80"  r="8"/>
        <circle cx="80"  cy="120" r="8"/>
        <circle cx="160" cy="120" r="8"/>
        <circle cx="120" cy="170" r="8"/>
        <circle cx="200" cy="160" r="8"/>
        <circle cx="280" cy="140" r="8"/>
      </g>
    </g>
  </g>

  <!-- Search step -->
  <g transform="translate(460,850)">
    <rect width="780" height="320" rx="16" fill="#f6f7f9" stroke="#d6d9de"/>
    <text x="20" y="40" font-size="20" font-weight="800" fill="#2c3a52">Search (per query)</text>
    <text x="20" y="70" font-size="14" fill="#555">1. Pick a <tspan font-weight="800">random</tspan> entry node = candidate</text>
    <text x="20" y="92" font-size="14" fill="#555">2. Look at neighbors &#8594; jump to whichever is closer to query</text>
    <text x="20" y="114" font-size="14" fill="#555">3. Repeat until no neighbor is closer &#8594; return candidate</text>
    <text x="20" y="146" font-size="13" fill="#888" font-style="italic">Greedy: chooses best local hop, not the optimal global path.</text>

    <!-- search animation graph -->
    <g transform="translate(60,160)">
      <g stroke="#cfd5dc" stroke-width="2" fill="none">
        <line x1="50"  y1="40"  x2="140" y2="20"/>
        <line x1="140" y1="20"  x2="240" y2="60"/>
        <line x1="50"  y1="40"  x2="90"  y2="100"/>
        <line x1="90"  y1="100" x2="180" y2="100"/>
        <line x1="180" y1="100" x2="280" y2="80"/>
        <line x1="240" y1="60"  x2="280" y2="80"/>
        <line x1="240" y1="60"  x2="180" y2="100"/>
        <line x1="140" y1="20"  x2="180" y2="100"/>
        <line x1="90"  y1="100" x2="140" y2="150"/>
        <line x1="140" y1="150" x2="240" y2="140"/>
        <line x1="180" y1="100" x2="240" y2="140"/>
      </g>
      <g fill="#2c3a52">
        <circle cx="50"  cy="40"  r="7"/>
        <circle cx="140" cy="20"  r="7"/>
        <circle cx="280" cy="80"  r="7"/>
        <circle cx="90"  cy="100" r="7"/>
        <circle cx="140" cy="150" r="7"/>
      </g>
      <!-- path -->
      <circle cx="240" cy="60" r="9" fill="#1eb6c8"/>
      <line x1="248" y1="68" x2="265" y2="92" stroke="#ef4773" stroke-width="4" marker-end="url(#arpink)"/>
      <circle cx="280" cy="80" r="9" fill="#2c3a52"/>
      <line x1="180" y1="100" x2="222" y2="135" stroke="#ef4773" stroke-width="4" marker-end="url(#arpink)"/>
      <circle cx="240" cy="140" r="9" fill="#2c3a52"/>

      <!-- query vector -->
      <line x1="280" y1="80" x2="400" y2="60" stroke="#2c3a52" stroke-width="2" stroke-dasharray="5 4"/>
      <circle cx="420" cy="55" r="11" fill="#ef4773"/>
      <text x="420" y="35" text-anchor="middle" font-size="14" font-weight="800" fill="#111">Query</text>
    </g>

    <text x="600" y="200" font-size="14" fill="#222">
      <tspan font-weight="800" fill="#1eb6c8">cyan</tspan><tspan> = entry</tspan>
    </text>
    <text x="600" y="222" font-size="14" fill="#222">
      <tspan font-weight="800" fill="#ef4773">pink arrows</tspan><tspan> = hops</tspan>
    </text>
    <text x="600" y="244" font-size="14" fill="#222">
      <tspan font-weight="800" fill="#ef4773">pink dot</tspan><tspan> = query</tspan>
    </text>
    <text x="600" y="266" font-size="14" fill="#222">stop when no neighbor</text>
    <text x="600" y="284" font-size="14" fill="#222">is closer than current</text>
  </g>

  <!-- NSW pros/cons -->
  <g transform="translate(1260,850)">
    <rect width="380" height="320" rx="16" fill="#2c3a52"/>
    <text x="20" y="40" font-size="20" font-weight="800" fill="#ffd86b">Why it works</text>
    <text x="20" y="72" font-size="14" fill="#ffffff">Each hop only checks a handful of</text>
    <text x="20" y="92" font-size="14" fill="#ffffff">neighbors &#8594; cheap.</text>
    <text x="20" y="124" font-size="14" fill="#ffffff">Most paths converge to the right</text>
    <text x="20" y="144" font-size="14" fill="#ffffff">region in O(log N) hops.</text>

    <text x="20" y="190" font-size="20" font-weight="800" fill="#ffd86b">Caveats</text>
    <text x="20" y="222" font-size="14" fill="#ffffff">&#8226; Might miss the true closest doc</text>
    <text x="20" y="244" font-size="14" fill="#ffffff">&#8226; Random entry &#8594; variance</text>
    <text x="20" y="266" font-size="14" fill="#ffffff">&#8226; Early hops are still expensive in a</text>
    <text x="20" y="286" font-size="14" fill="#ffffff">  huge graph &#8594; HNSW fixes this</text>
  </g>

  <!-- ===== SECTION 4: HNSW ===== -->
  <text x="60" y="1230" class="section">4. Hierarchical NSW (HNSW) — multi-layer shortcut</text>

  <rect x="60" y="1250" width="1580" height="430" rx="16" fill="#f6f7f9" stroke="#d6d9de"/>

  <!-- Three layers visualization -->
  <!-- Layer 3 (top) -->
  <g transform="translate(100,1280)">
    <circle cx="0" cy="0" r="20" fill="#ef5b6b"/>
    <text x="0" y="6" text-anchor="middle" font-size="18" font-weight="800" fill="#ffffff">3</text>
    <text x="40" y="6" font-size="22" font-weight="800" fill="#111">Layer 3 &#8226; ~10 vectors</text>
    <text x="40" y="36" font-size="14" fill="#555">Pick a random entry, find best candidate in this tiny graph &#8594; <tspan font-weight="800">big jumps</tspan></text>
    <!-- mini graph layer 3 -->
    <g transform="translate(1180,-30)">
      <g stroke="#2c3a52" stroke-width="2" fill="none">
        <line x1="20" y1="40" x2="80" y2="20"/>
        <line x1="80" y1="20" x2="140" y2="50"/>
        <line x1="20" y1="40" x2="60" y2="80"/>
        <line x1="60" y1="80" x2="140" y2="50"/>
        <line x1="60" y1="80" x2="120" y2="100"/>
        <line x1="120" y1="100" x2="140" y2="50"/>
      </g>
      <g fill="#2c3a52">
        <circle cx="20"  cy="40"  r="8"/>
        <circle cx="80"  cy="20"  r="8"/>
        <circle cx="140" cy="50"  r="8"/>
        <circle cx="60"  cy="80"  r="8"/>
        <circle cx="120" cy="100" r="8"/>
      </g>
    </g>
  </g>

  <!-- arrow down -->
  <line x1="200" y1="1330" x2="200" y2="1400" stroke="#111" stroke-width="3" marker-end="url(#ar)"/>
  <rect x="240" y="1340" width="280" height="50" rx="8" fill="#2c3a52"/>
  <text x="380" y="1372" text-anchor="middle" font-size="18" fill="#ffffff">Make big jumps early</text>

  <!-- Layer 2 -->
  <g transform="translate(100,1430)">
    <circle cx="0" cy="0" r="20" fill="#ef5b6b"/>
    <text x="0" y="6" text-anchor="middle" font-size="18" font-weight="800" fill="#ffffff">2</text>
    <text x="40" y="6" font-size="22" font-weight="800" fill="#111">Layer 2 &#8226; ~100 vectors</text>
    <text x="40" y="36" font-size="14" fill="#555">Start at best candidate from layer 3, do normal NSW search in this denser graph</text>
    <g transform="translate(1180,-30)">
      <g stroke="#5da8c8" stroke-width="1.3" fill="none">
        <line x1="10"  y1="30" x2="50"  y2="10"/>
        <line x1="50"  y1="10" x2="100" y2="20"/>
        <line x1="100" y1="20" x2="140" y2="40"/>
        <line x1="10"  y1="30" x2="40"  y2="60"/>
        <line x1="40"  y1="60" x2="80"  y2="55"/>
        <line x1="80"  y1="55" x2="100" y2="20"/>
        <line x1="80"  y1="55" x2="120" y2="80"/>
        <line x1="120" y1="80" x2="140" y2="40"/>
        <line x1="40"  y1="60" x2="60"  y2="95"/>
        <line x1="60"  y1="95" x2="120" y2="80"/>
        <line x1="60"  y1="95" x2="100" y2="110"/>
      </g>
      <g fill="#5da8c8">
        <circle cx="10"  cy="30"  r="5"/>
        <circle cx="50"  cy="10"  r="5"/>
        <circle cx="100" cy="20"  r="5"/>
        <circle cx="140" cy="40"  r="5"/>
        <circle cx="40"  cy="60"  r="5"/>
        <circle cx="80"  cy="55"  r="5"/>
        <circle cx="120" cy="80"  r="5"/>
        <circle cx="60"  cy="95"  r="5"/>
        <circle cx="100" cy="110" r="5"/>
        <circle cx="20"  cy="90"  r="5"/>
        <circle cx="135" cy="100" r="5"/>
      </g>
    </g>
  </g>

  <line x1="200" y1="1480" x2="200" y2="1550" stroke="#111" stroke-width="3" marker-end="url(#ar)"/>
  <rect x="240" y="1490" width="280" height="50" rx="8" fill="#2c3a52"/>
  <text x="380" y="1522" text-anchor="middle" font-size="18" fill="#ffffff">Close to prompt by layer 1</text>

  <!-- Layer 1 -->
  <g transform="translate(100,1580)">
    <circle cx="0" cy="0" r="20" fill="#ef5b6b"/>
    <text x="0" y="6" text-anchor="middle" font-size="18" font-weight="800" fill="#ffffff">1</text>
    <text x="40" y="6" font-size="22" font-weight="800" fill="#111">Layer 1 &#8226; all 1,000 vectors</text>
    <text x="40" y="36" font-size="14" fill="#555">Final descent: best candidate from layer 2 &#8594; refine in the full graph &#8594; return</text>
    <g transform="translate(1180,-30)">
      <g stroke="#a0a8b5" stroke-width="0.8" fill="none" opacity="0.8">
        <line x1="10"  y1="20" x2="50"  y2="10"/>
        <line x1="50"  y1="10" x2="90"  y2="20"/>
        <line x1="90"  y1="20" x2="130" y2="15"/>
        <line x1="10"  y1="20" x2="30"  y2="50"/>
        <line x1="30"  y1="50" x2="70"  y2="45"/>
        <line x1="70"  y1="45" x2="100" y2="55"/>
        <line x1="100" y1="55" x2="130" y2="40"/>
        <line x1="130" y1="40" x2="140" y2="80"/>
        <line x1="50"  y1="80" x2="100" y2="55"/>
        <line x1="30"  y1="50" x2="50"  y2="80"/>
        <line x1="50"  y1="80" x2="90"  y2="95"/>
        <line x1="90"  y1="95" x2="140" y2="80"/>
        <line x1="20"  y1="105" x2="70" y2="100"/>
        <line x1="70"  y1="100" x2="90" y2="95"/>
        <line x1="10"  y1="80" x2="30" y2="50"/>
      </g>
      <g fill="#7d8898">
        <circle cx="10"  cy="20"  r="3"/>
        <circle cx="50"  cy="10"  r="3"/>
        <circle cx="90"  cy="20"  r="3"/>
        <circle cx="130" cy="15"  r="3"/>
        <circle cx="30"  cy="50"  r="3"/>
        <circle cx="70"  cy="45"  r="3"/>
        <circle cx="100" cy="55"  r="3"/>
        <circle cx="130" cy="40"  r="3"/>
        <circle cx="140" cy="80"  r="3"/>
        <circle cx="50"  cy="80"  r="3"/>
        <circle cx="90"  cy="95"  r="3"/>
        <circle cx="20"  cy="105" r="3"/>
        <circle cx="70"  cy="100" r="3"/>
        <circle cx="10"  cy="80"  r="3"/>
      </g>
    </g>
  </g>

  <!-- ===== SECTION 5: KNN vs HNSW chart ===== -->
  <text x="60" y="1740" class="section">5. The complexity payoff: O(N) vs O(log N)</text>

  <rect x="60" y="1760" width="1100" height="280" rx="16" fill="#f6f7f9" stroke="#d6d9de"/>

  <!-- chart -->
  <g transform="translate(110,1790)">
    <line x1="40" y1="20" x2="40" y2="220" stroke="#1a2438" stroke-width="2.5"/>
    <polygon points="40,10 32,28 48,28" fill="#1a2438"/>
    <line x1="40" y1="220" x2="980" y2="220" stroke="#1a2438" stroke-width="2.5"/>
    <polygon points="990,220 972,212 972,228" fill="#1a2438"/>

    <!-- KNN linear -->
    <line x1="40" y1="220" x2="950" y2="30" stroke="#1eb6c8" stroke-width="5"/>
    <polygon points="958,28 944,30 952,42" fill="#1eb6c8"/>
    <rect x="500" y="50" width="180" height="44" rx="8" fill="#1eb6c8"/>
    <text x="590" y="70" text-anchor="middle" font-size="16" font-weight="800" fill="#ffffff">KNN</text>
    <text x="590" y="88" text-anchor="middle" font-size="14" font-weight="800" fill="#ffffff">Linear O(N)</text>

    <!-- HNSW log -->
    <path d="M40 220 Q 200 130 500 110 T 950 105" fill="none" stroke="#ef5b6b" stroke-width="5"/>
    <polygon points="958,103 944,98 944,110" fill="#ef5b6b"/>
    <rect x="700" y="140" width="220" height="44" rx="8" fill="#ef5b6b"/>
    <text x="810" y="160" text-anchor="middle" font-size="16" font-weight="800" fill="#ffffff">HNSW</text>
    <text x="810" y="178" text-anchor="middle" font-size="14" font-weight="800" fill="#ffffff">Logarithmic O(log N)</text>

    <text x="500" y="250" text-anchor="middle" font-size="16" fill="#111">Dataset Size</text>
    <text x="14" y="120" text-anchor="middle" font-size="16" fill="#111" transform="rotate(-90, 14, 120)">Calc Time</text>
  </g>

  <!-- right summary -->
  <rect x="1180" y="1760" width="460" height="280" rx="16" fill="#2c3a52"/>
  <text x="1210" y="1800" font-size="22" font-weight="800" fill="#ffd86b">Why HNSW wins</text>
  <text x="1210" y="1834" font-size="16" fill="#ffffff">Each layer has ~10&#215; fewer vectors,</text>
  <text x="1210" y="1858" font-size="16" fill="#ffffff">so big-jump phase costs almost nothing.</text>
  <text x="1210" y="1892" font-size="16" fill="#ffffff">Final layer just refines &#8212; you arrive</text>
  <text x="1210" y="1916" font-size="16" fill="#ffffff">already very close to the answer.</text>
  <text x="1210" y="1950" font-size="16" fill="#ffffff">Billions of vectors &#8594;</text>
  <text x="1210" y="1976" font-size="22" font-weight="800" fill="#ffd86b">~100 ms latency. </text>
  <text x="1210" y="2010" font-size="14" fill="#cfd5dc" font-style="italic">This is the algorithm behind every modern vector DB.</text>

  <!-- ===== SECTION 6: KEY TAKEAWAYS + 2026 ===== -->
  <text x="60" y="2090" class="section">6. Key takeaways &amp; 2026 production landscape</text>

  <rect x="60" y="2110" width="780" height="80" rx="14" fill="#ef5b6b"/>
  <text x="80" y="2140" font-size="15" fill="#ffffff">
    <tspan font-weight="800">&#10003;</tspan><tspan> ANN is much faster than KNN at scale &#8226; sacrifices guarantee, keeps quality</tspan>
  </text>
  <text x="80" y="2166" font-size="15" fill="#ffffff">
    <tspan font-weight="800">&#10003;</tspan><tspan> Proximity graph is expensive to build, but built once and reused for every query</tspan>
  </text>

  <rect x="860" y="2110" width="780" height="80" rx="14" fill="#1a2438"/>
  <text x="880" y="2140" font-size="15" fill="#ffffff">
    <tspan font-weight="800" fill="#ffd86b">2026 stack &#8226; </tspan>
    <tspan>HNSW everywhere (FAISS, hnswlib), plus DiskANN for SSD-backed billion-scale,</tspan>
  </text>
  <text x="880" y="2166" font-size="15" fill="#ffffff">cuVS/GPU ANN, binary &amp; Matryoshka quantization &#8594; 10-30&#215; memory savings, filtered-ANN for hybrid.</text>
</svg>
